<?xml version="1.0" encoding="UTF-8" standalone="no"?>
<!-- Created with Inkscape (http://www.inkscape.org/) -->

<svg
   xmlns:dc="http://purl.org/dc/elements/1.1/"
   xmlns:cc="http://creativecommons.org/ns#"
   xmlns:rdf="http://www.w3.org/1999/02/22-rdf-syntax-ns#"
   xmlns:svg="http://www.w3.org/2000/svg"
   xmlns="http://www.w3.org/2000/svg"
   xmlns:sodipodi="http://sodipodi.sourceforge.net/DTD/sodipodi-0.dtd"
   xmlns:inkscape="http://www.inkscape.org/namespaces/inkscape"
   id="svg3033"
   version="1.1"
   inkscape:version="0.48.3.1 r9886"
   width="150"
   height="142.93593"
   sodipodi:docname="tom6.svg">
  <metadata
     id="metadata3039">
    <rdf:RDF>
      <cc:Work
         rdf:about="">
        <dc:format>image/svg+xml</dc:format>
        <dc:type
           rdf:resource="http://purl.org/dc/dcmitype/StillImage" />
        <dc:title></dc:title>
      </cc:Work>
    </rdf:RDF>
  </metadata>
  <defs
     id="defs3037" />
  <sodipodi:namedview
     pagecolor="#ffffff"
     bordercolor="#666666"
     borderopacity="1"
     objecttolerance="10"
     gridtolerance="10"
     guidetolerance="10"
     inkscape:pageopacity="0"
     inkscape:pageshadow="2"
     inkscape:window-width="1598"
     inkscape:window-height="853"
     id="namedview3035"
     showgrid="false"
     inkscape:zoom="3.5661605"
     inkscape:cx="95.981955"
     inkscape:cy="64.301533"
     inkscape:window-x="0"
     inkscape:window-y="24"
     inkscape:window-maximized="0"
     inkscape:current-layer="svg3033"
     fit-margin-top="0"
     fit-margin-left="0"
     fit-margin-right="0"
     fit-margin-bottom="0" />
  <path
     style="fill:#cc0000;fill-opacity:1;fill-rule:nonzero;stroke-width:0.83600003;stroke-miterlimit:4"
     d="m 109.46916,20.384947 c -8.13501,0.31791 -16.024039,2.36671 -23.990289,3.7643 -4.32867,0.75768 -8.711595,1.3369 -13.123465,1.31888 -5.378265,0.0506 -10.720641,-0.76131 -16.000846,-1.67139 -6.1325,-1.03002 -12.277256,-2.35436 -18.542283,-2.26897 -4.786798,0.0628 -9.652184,0.88599 -13.902564,3.03725 -4.201818,2.13975 -7.582135,5.46592 -10.284013,9.1335 -3.6534914,4.9109 -6.5449904,10.30331 -8.8423697,15.88809 -3.9458227,9.80279 -5.58835752,20.46533 -4.40856563,30.9071 1.48543793,13.84779 7.68001843,27.161093 17.24022733,37.749113 6.705175,7.40352 15.123069,13.39 24.435044,17.58765 11.818544,5.35142 25.118855,7.82518 38.208585,6.92366 14.379295,-0.93751 28.521309,-5.67206 40.091789,-13.807 11.64824,-8.15626 20.75189,-19.57015 25.54014,-32.495993 3.22487,-8.6747 4.51577,-17.9593 3.99903,-27.12855 -0.72206,-11.99133 -4.8534,-23.8499 -12.20662,-33.69436 -2.45895,-3.24856 -5.23582,-6.31523 -8.47967,-8.8924 -5.0372,-3.88481 -11.44277,-6.21143 -17.96635,-6.33595 -0.58908,-0.0204 -1.17842,-0.0303 -1.76778,-0.0149 z"
     id="path4249"
     inkscape:connector-curvature="0" />
  <path
     style="fill:#a40000;fill-opacity:1;fill-rule:nonzero;stroke-width:0.83600003;stroke-miterlimit:4"
     d="m 55.60058,34.693117 c -8.73118,0.43162 -17.217546,3.63641 -24.325952,8.67228 -7.914344,5.65508 -14.250476,13.62462 -17.533099,22.81569 -3.9401004,10.84997 -2.837624,23.32486 2.662152,33.44064 4.127992,7.631223 10.500483,13.903493 17.820403,18.488873 6.620779,4.15625 14.170276,7.03227 22.010976,7.56753 3.55166,0.24073 7.195535,0.0475 10.593901,-1.07999 1.268175,-0.43655 2.48719,-1.31148 2.88946,-2.64815 0.71376,-2.12811 -0.08272,-4.45296 -1.3829,-6.17897 -1.831025,-2.46902 -4.624531,-3.91785 -7.272701,-5.34073 -4.751855,-2.58986 -9.5599,-5.31387 -13.367826,-9.21261 -2.776623,-2.782383 -5.01205,-6.094033 -6.513634,-9.739803 -1.732905,-4.13753 -2.488567,-8.75904 -2.120912,-13.26782 0.374801,-5.26222 2.134888,-10.40493 5.03513,-14.80396 2.760302,-4.21464 6.373117,-7.78288 10.157022,-11.07582 3.65496,-3.26793 7.43549,-6.60569 9.800165,-10.97493 0.73549,-1.41247 1.391465,-3.07441 0.94627,-4.67562 -0.487375,-1.27349 -1.925485,-1.88588 -3.21925,-1.82888 -2.0551,-0.18609 -4.117845,-0.18094 -6.179205,-0.15773 z"
     id="path4259"
     inkscape:connector-curvature="0" />
  <path
     style="fill:#a40000;fill-opacity:1;fill-rule:nonzero;stroke-width:0.83600003;stroke-miterlimit:4"
     d="m 91.455246,34.318177 c -2.41224,0.079 -4.949685,0.30436 -7.043635,1.61827 -1.63551,1.30278 -2.01516,3.73187 -1.256035,5.61233 0.890415,2.561 2.85777,4.6229 5.15187,6.00535 2.5822,1.59647 5.253475,3.04333 7.86776,4.58579 2.087335,1.27047 4.163824,2.59106 6.042244,4.17361 3.27335,2.75047 6.12914,6.06232 8.11564,9.85986 1.44354,2.66601 2.51044,5.51993 3.08699,8.5011 0.777,3.96525 0.65545,8.09417 -0.27302,12.02309 -0.83699,3.45775 -2.44045,6.71133 -4.61135,9.52565 -2.17551,2.8815 -4.92178,5.270033 -7.81299,7.408343 -4.350284,3.29274 -8.980324,6.28957 -12.765259,10.259 -1.98076,2.06485 -3.851595,4.37423 -4.72843,7.14004 -0.308435,1.22705 0.08797,2.71721 1.255195,3.35065 1.20593,0.66656 2.630085,0.53883 3.94968,0.74767 5.43718,0.51662 10.968275,0.0144 16.221294,-1.48345 5.17031,-1.46799 10.08192,-3.82031 14.48417,-6.90203 6.15976,-4.29993 11.37191,-9.99216 14.96319,-16.60034 2.99884,-5.562723 4.8065,-11.797443 5.02008,-18.124813 0.22733,-6.65622 -1.16258,-13.35887 -4.01763,-19.37602 -2.79197,-5.89411 -6.96477,-11.0682 -11.82483,-15.38775 -5.0191,-4.43306 -10.81597,-8.0187 -17.10526,-10.34175 -4.69968,-1.72027 -9.703919,-2.70706 -14.719674,-2.5946 z"
     id="path4259-7"
     inkscape:connector-curvature="0" />
  <path
     style="fill:#ef2929;fill-opacity:1;fill-rule:nonzero;stroke-width:0.83600003;stroke-miterlimit:4"
     inkscape:transform-center-x="7.7348125"
     inkscape:transform-center-y="-1.3804749"
     d="m 70.147541,26.377887 c -1.73349,0.18438 -4.757141,-0.53469 -6.340946,0.14178 -0.67204,0.84756 0.383695,2.48804 0.773635,3.28887 2.095001,3.91688 5.472771,6.93245 5.807736,11.27461 0.434855,5.54207 0.5429,12.99287 -4.908896,14.31143 -5.624345,0.8005 -11.59023,4.59627 -15.532944,7.68441 -1.975517,1.61782 -1.504253,7.02792 -2.212897,9.23086 -0.944215,2.4662 -3.837241,2.42231 -4.577138,4.93762 -0.38321,1.89662 1.730359,4.45165 2.602723,6.17358 0.832293,1.75549 3.373508,1.93829 3.32743,3.83754 0.07136,1.82405 -2.716932,6.06342 -1.21238,7.49264 1.842069,1.94717 4.049046,-3.43084 2.817541,5.560163 2.80242,3.71938 8.54109,-5.423013 7.40229,3.08431 -0.825245,4.02564 4.78191,3.06013 9.913396,1.32418 6.641135,-4.38187 3.172815,-1.61724 6.91703,1.92904 1.82236,2.1509 8.993465,-5.57589 11.42292,-3.69083 7.986475,4.76511 8.53569,-3.215223 7.66183,-8.002893 -2.66299,-5.1621 2.23995,-3.17649 6.069619,-3.28997 6.01573,-1.28156 1.13447,-9.23405 1.52407,-12.50909 0.0949,-2.46782 -0.36914,-5.06857 -2.132854,-7.12113 -1.43164,-1.89868 -3.02655,-3.89888 -3.09293,-6.21768 -0.156045,-1.56898 -0.71213,-3.28932 -2.364065,-4.22578 -1.397205,-5.04298 -6.571435,-2.6274 -9.493795,-4.46626 -2.87811,-1.70454 -5.044265,-4.43365 -5.12856,-7.42949 -0.18177,-2.45999 0.418385,-4.89387 0.667275,-7.33563 0.686325,-4.50574 3.45927,-9.45652 4.11689,-13.96463 0.05747,-0.69003 0.77096,-2.21603 -2.99295,-2.01324 -2.47221,-0.30039 -4.198695,1.26886 -6.505035,0.65392 -1.269225,-0.24319 -3.22227,-0.71448 -4.528995,-0.65833 z"
     id="path4295"
     inkscape:connector-curvature="0"
     sodipodi:nodetypes="ccccccccccccccccccccccccccccc" />
  <path
     style="fill:#4e9a06;fill-opacity:1;fill-rule:nonzero;stroke-width:0.83600003;stroke-miterlimit:4"
     d="m 70.178121,0.04997724 c -0.671035,-0.007 -1.26033,-0.1941 -1.717005,0.23427 -0.395065,0.59748 0.701365,7.41643996 0.66153,8.09600996 -0.09457,5.1117498 0.341025,3.3277198 0.220115,8.4388598 -0.05397,0.93438 0.03065,3.23861 -2.148515,4.20145 -2.288631,0.74122 -4.631251,0.20087 -10.095306,-1.86922 -8.456066,-2.40875 -9.347902,-5.44687 -7.279099,-7.8885 -5.893532,0.11163 -2.124588,6.3757 -0.580779,7.34964 5.746823,2.50074 9.569913,4.19711 11.704353,4.99335 4.408915,0.95909 7.550911,1.03172 8.510131,1.08807 1.35793,0.10851 4.7635,0.081 6.124015,0.042 1.023,-0.0355 2.04323,-0.12172 3.06387,-0.19319 0.679395,-0.0601 6.874445,-0.94688 7.499255,-1.2125 0.98045,-0.36328 9.429625,-2.41212 10.45638,-2.65016 9.648484,-3.83033 5.374794,-10.8356198 0.86474,-10.7296198 2.709954,3.0871398 3.093724,6.9242798 -4.704115,9.1057998 -0.548125,-0.26026 -3.705975,1.1472 -10.648415,2.21522 -1.644625,-0.68853 -2.95914,-1.67641 -3.01303,-2.36547 -1.08481,-2.27182 -1.185465,-3.74624 -1.11367,-5.70632 -0.144075,-2.68057 0.19908,-4.9781398 0.0347,-7.6577398 -0.05579,-0.95554 0.07641,-2.29613 0.25963,-3.24932 0.25707,-1.25509 0.96354,-1.63176996 0.799785,-2.13356996 -0.158755,-0.33253 -1.302695,-0.0378 -2.171695,-0.0539 -2.203945,-0.0128 -3.785325,-0.0262 -5.989175,-0.0491 l -0.438585,0.005 z"
     id="rect4298"
     inkscape:connector-curvature="0"
     sodipodi:nodetypes="cccccccccccccccccccccccccc" />
  <path
     sodipodi:type="star"
     style="opacity:0.06122448;fill:#000000;fill-opacity:1;fill-rule:nonzero;stroke-width:0.83600003;stroke-miterlimit:4;stroke-dasharray:none"
     id="path4308-5"
     sodipodi:sides="3"
     sodipodi:cx="1085.0012"
     sodipodi:cy="-433.65009"
     sodipodi:r1="57.000576"
     sodipodi:r2="42.636433"
     sodipodi:arg1="2.1279207"
     sodipodi:arg2="3.1811299"
     inkscape:flatsided="false"
     inkscape:rounded="0.24"
     inkscape:randomized="0"
     d="m 1054.8623,-385.26919 c -10.4706,-6.61039 -12.8792,-37.69049 -12.4642,-50.06618 0.4111,-12.25748 4.9181,-42.8987 15.7735,-48.60623 10.96,-5.76258 39.0805,7.69151 49.5907,14.23878 10.4097,6.48473 34.6923,25.70857 34.2075,37.96335 -0.4895,12.37298 -26.2013,29.99898 -37.1265,35.82741 -10.8208,5.77275 -39.6104,17.19013 -49.981,10.64287 z"
     transform="matrix(0.10409923,0.09488574,-0.05251877,0.06591478,-94.288656,-28.143983)" />
  <path
     sodipodi:type="star"
     style="opacity:0.06122448;fill:#000000;fill-opacity:1;fill-rule:nonzero;stroke-width:0.83600003;stroke-miterlimit:4;stroke-dasharray:none"
     id="path4308-5-5"
     sodipodi:sides="3"
     sodipodi:cx="1085.0012"
     sodipodi:cy="-433.65009"
     sodipodi:r1="57.000576"
     sodipodi:r2="42.636433"
     sodipodi:arg1="2.1279207"
     sodipodi:arg2="3.1811299"
     inkscape:flatsided="false"
     inkscape:rounded="0.24"
     inkscape:randomized="0"
     d="m 1054.8623,-385.26919 c -10.4706,-6.61039 -12.8792,-37.69049 -12.4642,-50.06618 0.4111,-12.25748 4.9181,-42.8987 15.7735,-48.60623 10.96,-5.76258 39.0805,7.69151 49.5907,14.23878 10.4097,6.48473 34.6923,25.70857 34.2075,37.96335 -0.4895,12.37298 -26.2013,29.99898 -37.1265,35.82741 -10.8208,5.77275 -39.6104,17.19013 -49.981,10.64287 z"
     inkscape:transform-center-x="38.178554"
     transform="matrix(0.13667811,0.06314911,-0.02875354,0.08604572,-128.45705,25.706987)"
     inkscape:transform-center-y="-22.621606" />
  <path
     sodipodi:type="star"
     style="opacity:0.06122448;fill:#000000;fill-opacity:1;fill-rule:nonzero;stroke-width:0.83600003;stroke-miterlimit:4;stroke-dasharray:none"
     id="path4308-5-9"
     sodipodi:sides="3"
     sodipodi:cx="1085.0012"
     sodipodi:cy="-433.65009"
     sodipodi:r1="57.000576"
     sodipodi:r2="42.636433"
     sodipodi:arg1="2.1279207"
     sodipodi:arg2="3.1811299"
     inkscape:flatsided="false"
     inkscape:rounded="0.24"
     inkscape:randomized="0"
     d="m 1054.8623,-385.26919 c -10.4706,-6.61039 -12.8792,-37.69049 -12.4642,-50.06618 0.4111,-12.25748 4.9181,-42.8987 15.7735,-48.60623 10.96,-5.76258 39.0805,7.69151 49.5907,14.23878 10.4097,6.48473 34.6923,25.70857 34.2075,37.96335 -0.4895,12.37298 -26.2013,29.99898 -37.1265,35.82741 -10.8208,5.77275 -39.6104,17.19013 -49.981,10.64287 z"
     transform="matrix(0.05991031,0.09204308,-0.06091794,0.03556719,-37.604988,-43.933498)" />
  <path
     sodipodi:type="star"
     style="opacity:0.06122448;fill:#000000;fill-opacity:1;fill-rule:nonzero;stroke-width:0.83600003;stroke-miterlimit:4;stroke-dasharray:none"
     id="path4308-5-5-6"
     sodipodi:sides="3"
     sodipodi:cx="1085.0012"
     sodipodi:cy="-433.65009"
     sodipodi:r1="57.000576"
     sodipodi:r2="42.636433"
     sodipodi:arg1="2.1279207"
     sodipodi:arg2="3.1811299"
     inkscape:flatsided="false"
     inkscape:rounded="0.24"
     inkscape:randomized="0"
     d="m 1054.8623,-385.26919 c -10.4706,-6.61039 -12.8792,-37.69049 -12.4642,-50.06618 0.4111,-12.25748 4.9181,-42.8987 15.7735,-48.60623 10.96,-5.76258 39.0805,7.69151 49.5907,14.23878 10.4097,6.48473 34.6923,25.70857 34.2075,37.96335 -0.4895,12.37298 -26.2013,29.99898 -37.1265,35.82741 -10.8208,5.77275 -39.6104,17.19013 -49.981,10.64287 z"
     transform="matrix(0.14945915,0.01818459,-9.7639501e-4,0.09071758,-136.83226,88.865437)"
     inkscape:transform-center-y="-0.89867261"
     inkscape:transform-center-x="-0.19646273" />
  <path
     sodipodi:type="star"
     style="opacity:0.06122448;fill:#000000;fill-opacity:1;fill-rule:nonzero;stroke-width:0.83600003;stroke-miterlimit:4;stroke-dasharray:none"
     id="path4308-5-5-6-7"
     sodipodi:sides="3"
     sodipodi:cx="1085.0012"
     sodipodi:cy="-433.65009"
     sodipodi:r1="57.000576"
     sodipodi:r2="42.636433"
     sodipodi:arg1="2.1279207"
     sodipodi:arg2="3.1811299"
     inkscape:flatsided="false"
     inkscape:rounded="0.24"
     inkscape:randomized="0"
     d="m 1054.8623,-385.26919 c -10.4706,-6.61039 -12.8792,-37.69049 -12.4642,-50.06618 0.4111,-12.25748 4.9181,-42.8987 15.7735,-48.60623 10.96,-5.76258 39.0805,7.69151 49.5907,14.23878 10.4097,6.48473 34.6923,25.70857 34.2075,37.96335 -0.4895,12.37298 -26.2013,29.99898 -37.1265,35.82741 -10.8208,5.77275 -39.6104,17.19013 -49.981,10.64287 z"
     transform="matrix(0.14443841,-0.03534772,0.03094396,0.08525831,-118.21061,158.75244)"
     inkscape:transform-center-y="0.44651208"
     inkscape:transform-center-x="0.057065685" />
  <path
     sodipodi:type="star"
     style="opacity:0.06122448;fill:#000000;fill-opacity:1;fill-rule:nonzero;stroke-width:0.83600003;stroke-miterlimit:4;stroke-dasharray:none"
     id="path4308-5-5-6-7-8"
     sodipodi:sides="3"
     sodipodi:cx="1085.0012"
     sodipodi:cy="-433.65009"
     sodipodi:r1="57.000576"
     sodipodi:r2="42.636433"
     sodipodi:arg1="2.1279207"
     sodipodi:arg2="3.1811299"
     inkscape:flatsided="false"
     inkscape:rounded="0.24"
     inkscape:randomized="0"
     d="m 1054.8623,-385.26919 c -10.4706,-6.61039 -12.8792,-37.69049 -12.4642,-50.06618 0.4111,-12.25748 4.9181,-42.8987 15.7735,-48.60623 10.96,-5.76258 39.0805,7.69151 49.5907,14.23878 10.4097,6.48473 34.6923,25.70857 34.2075,37.96335 -0.4895,12.37298 -26.2013,29.99898 -37.1265,35.82741 -10.8208,5.77275 -39.6104,17.19013 -49.981,10.64287 z"
     transform="matrix(0.11858969,-0.085957,0.06155093,0.08117277,-71.868756,225.03926)"
     inkscape:transform-center-y="0.77368164"
     inkscape:transform-center-x="0.73629317" />
  <path
     sodipodi:type="star"
     style="opacity:0.06122448;fill:#000000;fill-opacity:1;fill-rule:nonzero;stroke-width:0.83600003;stroke-miterlimit:4;stroke-dasharray:none"
     id="path4308-5-5-6-7-8-5"
     sodipodi:sides="3"
     sodipodi:cx="1085.0012"
     sodipodi:cy="-433.65009"
     sodipodi:r1="57.000576"
     sodipodi:r2="42.636433"
     sodipodi:arg1="2.1279207"
     sodipodi:arg2="3.1811299"
     inkscape:flatsided="false"
     inkscape:rounded="0.24"
     inkscape:randomized="0"
     d="m 1054.8623,-385.26919 c -10.4706,-6.61039 -12.8792,-37.69049 -12.4642,-50.06618 0.4111,-12.25748 4.9181,-42.8987 15.7735,-48.60623 10.96,-5.76258 39.0805,7.69151 49.5907,14.23878 10.4097,6.48473 34.6923,25.70857 34.2075,37.96335 -0.4895,12.37298 -26.2013,29.99898 -37.1265,35.82741 -10.8208,5.77275 -39.6104,17.19013 -49.981,10.64287 z"
     transform="matrix(0.07499297,-0.09054718,0.08043193,0.05566853,-7.4740755,229.82499)"
     inkscape:transform-center-y="0.4339315"
     inkscape:transform-center-x="1.3311443" />
  <path
     sodipodi:type="star"
     style="opacity:0.06122448;fill:#000000;fill-opacity:1;fill-rule:nonzero;stroke-width:0.83600003;stroke-miterlimit:4;stroke-dasharray:none"
     id="path4308-5-5-6-7-8-5-9"
     sodipodi:sides="3"
     sodipodi:cx="1085.0012"
     sodipodi:cy="-433.65009"
     sodipodi:r1="57.000576"
     sodipodi:r2="42.636433"
     sodipodi:arg1="2.1279207"
     sodipodi:arg2="3.1811299"
     inkscape:flatsided="false"
     inkscape:rounded="0.24"
     inkscape:randomized="0"
     d="m 1054.8623,-385.26919 c -10.4706,-6.61039 -12.8792,-37.69049 -12.4642,-50.06618 0.4111,-12.25748 4.9181,-42.8987 15.7735,-48.60623 10.96,-5.76258 39.0805,7.69151 49.5907,14.23878 10.4097,6.48473 34.6923,25.70857 34.2075,37.96335 -0.4895,12.37298 -26.2013,29.99898 -37.1265,35.82741 -10.8208,5.77275 -39.6104,17.19013 -49.981,10.64287 z"
     transform="matrix(0.05471798,-0.09507661,0.07645316,0.0376804,23.870825,234.5238)"
     inkscape:transform-center-y="0.16400643"
     inkscape:transform-center-x="1.2669741" />
  <path
     sodipodi:type="star"
     style="opacity:0.06122448;fill:#000000;fill-opacity:1;fill-rule:nonzero;stroke-width:0.83600003;stroke-miterlimit:4;stroke-dasharray:none"
     id="path4308-5-5-6-7-8-5-9-3"
     sodipodi:sides="3"
     sodipodi:cx="1085.0012"
     sodipodi:cy="-433.65009"
     sodipodi:r1="57.000576"
     sodipodi:r2="42.636433"
     sodipodi:arg1="2.1279207"
     sodipodi:arg2="3.1811299"
     inkscape:flatsided="false"
     inkscape:rounded="0.24"
     inkscape:randomized="0"
     d="m 1054.8623,-385.26919 c -10.4706,-6.61039 -12.8792,-37.69049 -12.4642,-50.06618 0.4111,-12.25748 4.9181,-42.8987 15.7735,-48.60623 10.96,-5.76258 39.0805,7.69151 49.5907,14.23878 10.4097,6.48473 34.6923,25.70857 34.2075,37.96335 -0.4895,12.37298 -26.2013,29.99898 -37.1265,35.82741 -10.8208,5.77275 -39.6104,17.19013 -49.981,10.64287 z"
     transform="matrix(0.01729489,-0.08991364,0.06958602,0.01004309,72.760776,221.14295)"
     inkscape:transform-center-y="-0.110132"
     inkscape:transform-center-x="0.76603818" />
  <path
     sodipodi:type="star"
     style="opacity:1;fill:#8ae234;fill-opacity:1;fill-rule:nonzero;stroke-width:0.83600003000000001;stroke-miterlimit:4;stroke-dasharray:none"
     id="path4308-5-7"
     sodipodi:sides="3"
     sodipodi:cx="1085.0012"
     sodipodi:cy="-433.65009"
     sodipodi:r1="57.000576"
     sodipodi:r2="42.636433"
     sodipodi:arg1="2.1279207"
     sodipodi:arg2="3.1811299"
     inkscape:flatsided="false"
     inkscape:rounded="0.24"
     inkscape:randomized="0"
     d="m 1054.8623,-385.26919 c -10.4706,-6.61039 -12.8792,-37.69049 -12.4642,-50.06618 0.4111,-12.25748 4.9181,-42.8987 15.7735,-48.60623 10.96,-5.76258 39.0805,7.69151 49.5907,14.23878 10.4097,6.48473 34.6923,25.70857 34.2075,37.96335 -0.4895,12.37298 -26.2013,29.99898 -37.1265,35.82741 -10.8208,5.77275 -39.6104,17.19013 -49.981,10.64287 z"
     transform="matrix(-0.10111794,0.0925957,0.05101469,0.06432395,237.36612,-26.974333)" />
  <path
     sodipodi:type="star"
     style="opacity:1;fill:#8ae234;fill-opacity:1;fill-rule:nonzero;stroke-width:0.83600003000000001;stroke-miterlimit:4;stroke-dasharray:none"
     id="path4308-5-5-8"
     sodipodi:sides="3"
     sodipodi:cx="1085.0012"
     sodipodi:cy="-433.65009"
     sodipodi:r1="57.000576"
     sodipodi:r2="42.636433"
     sodipodi:arg1="2.1279207"
     sodipodi:arg2="3.1811299"
     inkscape:flatsided="false"
     inkscape:rounded="0.24"
     inkscape:randomized="0"
     d="m 1054.8623,-385.26919 c -10.4706,-6.61039 -12.8792,-37.69049 -12.4642,-50.06618 0.4111,-12.25748 4.9181,-42.8987 15.7735,-48.60623 10.96,-5.76258 39.0805,7.69151 49.5907,14.23878 10.4097,6.48473 34.6923,25.70857 34.2075,37.96335 -0.4895,12.37298 -26.2013,29.99898 -37.1265,35.82741 -10.8208,5.77275 -39.6104,17.19013 -49.981,10.64287 z"
     inkscape:transform-center-x="-37.085163"
     transform="matrix(-0.1327638,0.06162502,0.02793007,0.08396903,273.71534,25.050397)"
     inkscape:transform-center-y="-22.07565" />
  <path
     sodipodi:type="star"
     style="opacity:1;fill:#8ae234;fill-opacity:1;fill-rule:nonzero;stroke-width:0.83600003000000001;stroke-miterlimit:4;stroke-dasharray:none"
     id="path4308-5-9-6"
     sodipodi:sides="3"
     sodipodi:cx="1085.0012"
     sodipodi:cy="-433.65009"
     sodipodi:r1="57.000576"
     sodipodi:r2="42.636433"
     sodipodi:arg1="2.1279207"
     sodipodi:arg2="3.1811299"
     inkscape:flatsided="false"
     inkscape:rounded="0.24"
     inkscape:randomized="0"
     d="m 1054.8623,-385.26919 c -10.4706,-6.61039 -12.8792,-37.69049 -12.4642,-50.06618 0.4111,-12.25748 4.9181,-42.8987 15.7735,-48.60623 10.96,-5.76258 39.0805,7.69151 49.5907,14.23878 10.4097,6.48473 34.6923,25.70857 34.2075,37.96335 -0.4895,12.37298 -26.2013,29.99898 -37.1265,35.82741 -10.8208,5.77275 -39.6104,17.19013 -49.981,10.64287 z"
     transform="matrix(-0.05819455,0.08982164,0.05917331,0.03470878,181.25268,-41.592923)" />
  <path
     sodipodi:type="star"
     style="opacity:1;fill:#8ae234;fill-opacity:1;fill-rule:nonzero;stroke-width:0.83600003000000001;stroke-miterlimit:4;stroke-dasharray:none"
     id="path4308-5-5-6-2"
     sodipodi:sides="3"
     sodipodi:cx="1085.0012"
     sodipodi:cy="-433.65009"
     sodipodi:r1="57.000576"
     sodipodi:r2="42.636433"
     sodipodi:arg1="2.1279207"
     sodipodi:arg2="3.1811299"
     inkscape:flatsided="false"
     inkscape:rounded="0.24"
     inkscape:randomized="0"
     d="m 1054.8623,-385.26919 c -10.4706,-6.61039 -12.8792,-37.69049 -12.4642,-50.06618 0.4111,-12.25748 4.9181,-42.8987 15.7735,-48.60623 10.96,-5.76258 39.0805,7.69151 49.5907,14.23878 10.4097,6.48473 34.6923,25.70857 34.2075,37.96335 -0.4895,12.37298 -26.2013,29.99898 -37.1265,35.82741 -10.8208,5.77275 -39.6104,17.19013 -49.981,10.64287 z"
     transform="matrix(-0.1451788,0.01774571,9.4843001e-4,0.08852813,281.58744,87.211107)"
     inkscape:transform-center-y="-0.87697618"
     inkscape:transform-center-x="0.19082764" />
  <path
     sodipodi:type="star"
     style="opacity:1;fill:#8ae234;fill-opacity:1;fill-rule:nonzero;stroke-width:0.83600003000000001;stroke-miterlimit:4;stroke-dasharray:none"
     id="path4308-5-5-6-7-3"
     sodipodi:sides="3"
     sodipodi:cx="1085.0012"
     sodipodi:cy="-433.65009"
     sodipodi:r1="57.000576"
     sodipodi:r2="42.636433"
     sodipodi:arg1="2.1279207"
     sodipodi:arg2="3.1811299"
     inkscape:flatsided="false"
     inkscape:rounded="0.24"
     inkscape:randomized="0"
     d="m 1054.8623,-385.26919 c -10.4706,-6.61039 -12.8792,-37.69049 -12.4642,-50.06618 0.4111,-12.25748 4.9181,-42.8987 15.7735,-48.60623 10.96,-5.76258 39.0805,7.69151 49.5907,14.23878 10.4097,6.48473 34.6923,25.70857 34.2075,37.96335 -0.4895,12.37298 -26.2013,29.99898 -37.1265,35.82741 -10.8208,5.77275 -39.6104,17.19013 -49.981,10.64287 z"
     transform="matrix(-0.1443217,-0.00676271,-0.01343182,0.08743797,277.1318,127.76946)"
     inkscape:transform-center-y="-0.23929018"
     inkscape:transform-center-x="0.12619884" />
  <path
     sodipodi:type="star"
     style="opacity:1;fill:#8ae234;fill-opacity:1;fill-rule:nonzero;stroke-width:0.83600003000000001;stroke-miterlimit:4;stroke-dasharray:none"
     id="path4308-5-5-6-7-8-8"
     sodipodi:sides="3"
     sodipodi:cx="1085.0012"
     sodipodi:cy="-433.65009"
     sodipodi:r1="57.000576"
     sodipodi:r2="42.636433"
     sodipodi:arg1="2.1279207"
     sodipodi:arg2="3.1811299"
     inkscape:flatsided="false"
     inkscape:rounded="0.24"
     inkscape:randomized="0"
     d="m 1054.8623,-385.26919 c -10.4706,-6.61039 -12.8792,-37.69049 -12.4642,-50.06618 0.4111,-12.25748 4.9181,-42.8987 15.7735,-48.60623 10.96,-5.76258 39.0805,7.69151 49.5907,14.23878 10.4097,6.48473 34.6923,25.70857 34.2075,37.96335 -0.4895,12.37298 -26.2013,29.99898 -37.1265,35.82741 -10.8208,5.77275 -39.6104,17.19013 -49.981,10.64287 z"
     transform="matrix(-0.11519341,-0.08388245,-0.05978818,0.07921369,221.90705,220.88826)"
     inkscape:transform-center-y="0.75501454"
     inkscape:transform-center-x="-0.71520545" />
  <path
     sodipodi:type="star"
     style="opacity:1;fill:#8ae234;fill-opacity:1;fill-rule:nonzero;stroke-width:0.83600003000000001;stroke-miterlimit:4;stroke-dasharray:none"
     id="path4308-5-5-6-7-8-5-1"
     sodipodi:sides="3"
     sodipodi:cx="1085.0012"
     sodipodi:cy="-433.65009"
     sodipodi:r1="57.000576"
     sodipodi:r2="42.636433"
     sodipodi:arg1="2.1279207"
     sodipodi:arg2="3.1811299"
     inkscape:flatsided="false"
     inkscape:rounded="0.24"
     inkscape:randomized="0"
     d="m 1054.8623,-385.26919 c -10.4706,-6.61039 -12.8792,-37.69049 -12.4642,-50.06618 0.4111,-12.25748 4.9181,-42.8987 15.7735,-48.60623 10.96,-5.76258 39.0805,7.69151 49.5907,14.23878 10.4097,6.48473 34.6923,25.70857 34.2075,37.96335 -0.4895,12.37298 -26.2013,29.99898 -37.1265,35.82741 -10.8208,5.77275 -39.6104,17.19013 -49.981,10.64287 z"
     transform="matrix(-0.07284525,-0.08836185,-0.07812844,0.05432498,159.0933,227.40146)"
     inkscape:transform-center-y="0.42346147"
     inkscape:transform-center-x="-1.2930228" />
  <path
     sodipodi:type="star"
     style="opacity:0.06122448;fill:#000000;fill-opacity:1;fill-rule:nonzero;stroke-width:0.83600003;stroke-miterlimit:4;stroke-dasharray:none"
     id="path4308-5-5-6-7-8-5-9-4"
     sodipodi:sides="3"
     sodipodi:cx="1085.0012"
     sodipodi:cy="-433.65009"
     sodipodi:r1="57.000576"
     sodipodi:r2="42.636433"
     sodipodi:arg1="2.1279207"
     sodipodi:arg2="3.1811299"
     inkscape:flatsided="false"
     inkscape:rounded="0.24"
     inkscape:randomized="0"
     d="m 1054.8623,-385.26919 c -10.4706,-6.61039 -12.8792,-37.69049 -12.4642,-50.06618 0.4111,-12.25748 4.9181,-42.8987 15.7735,-48.60623 10.96,-5.76258 39.0805,7.69151 49.5907,14.23878 10.4097,6.48473 34.6923,25.70857 34.2075,37.96335 -0.4895,12.37298 -26.2013,29.99898 -37.1265,35.82741 -10.8208,5.77275 -39.6104,17.19013 -49.981,10.64287 z"
     transform="matrix(-0.05315091,-0.09278197,-0.07426363,0.03677099,128.64608,231.98687)"
     inkscape:transform-center-y="0.16004745"
     inkscape:transform-center-x="-1.2306966" />
  <path
     sodipodi:type="star"
     style="opacity:0.06122448;fill:#000000;fill-opacity:1;fill-rule:nonzero;stroke-width:0.83600003;stroke-miterlimit:4;stroke-dasharray:none"
     id="path4308-5-5-6-7-8-5-9-3-5"
     sodipodi:sides="3"
     sodipodi:cx="1085.0012"
     sodipodi:cy="-433.65009"
     sodipodi:r1="57.000576"
     sodipodi:r2="42.636433"
     sodipodi:arg1="2.1279207"
     sodipodi:arg2="3.1811299"
     inkscape:flatsided="false"
     inkscape:rounded="0.24"
     inkscape:randomized="0"
     d="m 1054.8623,-385.26919 c -10.4706,-6.61039 -12.8792,-37.69049 -12.4642,-50.06618 0.4111,-12.25748 4.9181,-42.8987 15.7735,-48.60623 10.96,-5.76258 39.0805,7.69151 49.5907,14.23878 10.4097,6.48473 34.6923,25.70857 34.2075,37.96335 -0.4895,12.37298 -26.2013,29.99898 -37.1265,35.82741 -10.8208,5.77275 -39.6104,17.19013 -49.981,10.64287 z"
     transform="matrix(-0.01679958,-0.0877436,-0.06759315,0.0098007,81.156286,218.92896)"
     inkscape:transform-center-y="-0.10747092"
     inkscape:transform-center-x="-0.74410121" />
</svg>
